<mxfile host="app.diagrams.net" modified="2022-09-26T18:14:43.594Z" agent="5.0 (Windows NT 10.0; Win64; x64) AppleWebKit/537.36 (KHTML, like Gecko) Chrome/105.0.0.0 Safari/537.36" etag="npXTE7R2HH9GUSqTsmpU" version="20.3.6" type="github">
  <diagram id="5fx1KnYHxtjRHMJQop8Q" name="Page-1">
    <mxGraphModel dx="2912" dy="1065" grid="1" gridSize="10" guides="1" tooltips="1" connect="1" arrows="1" fold="1" page="1" pageScale="1" pageWidth="850" pageHeight="1100" background="#ffffff" math="0" shadow="0">
      <root>
        <mxCell id="0" />
        <mxCell id="1" parent="0" />
        <mxCell id="97Ysu-zJNFPGAkoGWPqu-56" value="" style="rounded=0;whiteSpace=wrap;html=1;labelBackgroundColor=none;strokeColor=none;fontSize=12;" parent="1" vertex="1">
          <mxGeometry x="-800" y="110" width="2450" height="960" as="geometry" />
        </mxCell>
        <mxCell id="1xDmvpwKd0i19dfhEDCs-4" value="" style="rounded=1;whiteSpace=wrap;html=1;fontStyle=1;strokeColor=#6c8ebf;fillColor=#EBF8FF;fontSize=12;" parent="1" vertex="1">
          <mxGeometry x="-45" y="120" width="250" height="380" as="geometry" />
        </mxCell>
        <mxCell id="97Ysu-zJNFPGAkoGWPqu-46" value="" style="rounded=1;whiteSpace=wrap;html=1;fontStyle=1;strokeColor=#6c8ebf;fillColor=#EBF8FF;fontSize=12;" parent="1" vertex="1">
          <mxGeometry x="342.5" y="120" width="250" height="380" as="geometry" />
        </mxCell>
        <mxCell id="97Ysu-zJNFPGAkoGWPqu-33" value="" style="shape=cylinder3;whiteSpace=wrap;html=1;boundedLbl=1;backgroundOutline=1;size=15;fillColor=#d5e8d4;strokeColor=#82b366;fontSize=12;" parent="1" vertex="1">
          <mxGeometry x="1095" y="770" width="160" height="190" as="geometry" />
        </mxCell>
        <mxCell id="97Ysu-zJNFPGAkoGWPqu-1" value="" style="shape=cylinder3;whiteSpace=wrap;html=1;boundedLbl=1;backgroundOutline=1;size=15;fillColor=#d5e8d4;strokeColor=#82b366;fontSize=12;" parent="1" vertex="1">
          <mxGeometry x="740" y="260" width="160" height="190" as="geometry" />
        </mxCell>
        <mxCell id="97Ysu-zJNFPGAkoGWPqu-2" value="&lt;h5 style=&quot;font-size: 12px;&quot;&gt;Blob Automated Provisioning&amp;nbsp;&lt;br style=&quot;font-size: 12px;&quot;&gt;Git Repo&lt;/h5&gt;" style="text;html=1;strokeColor=none;fillColor=none;align=center;verticalAlign=middle;whiteSpace=wrap;rounded=0;fontSize=12;" parent="1" vertex="1">
          <mxGeometry x="740" y="300" width="160" height="20" as="geometry" />
        </mxCell>
        <mxCell id="97Ysu-zJNFPGAkoGWPqu-6" value="&lt;h4 style=&quot;font-size: 12px;&quot;&gt;Blob User / Client Side&amp;nbsp;&lt;/h4&gt;" style="text;html=1;strokeColor=none;fillColor=none;align=center;verticalAlign=middle;whiteSpace=wrap;rounded=0;fontSize=12;" parent="1" vertex="1">
          <mxGeometry x="360" y="147.5" width="200" height="20" as="geometry" />
        </mxCell>
        <mxCell id="97Ysu-zJNFPGAkoGWPqu-7" value="Blob Storage Manifest" style="shape=note;whiteSpace=wrap;html=1;backgroundOutline=1;darkOpacity=0.05;fillColor=#e1d5e7;strokeColor=#9673a6;fontSize=12;" parent="1" vertex="1">
          <mxGeometry x="782.5" y="340" width="75" height="97.5" as="geometry" />
        </mxCell>
        <mxCell id="97Ysu-zJNFPGAkoGWPqu-10" style="edgeStyle=orthogonalEdgeStyle;rounded=0;orthogonalLoop=1;jettySize=auto;html=1;exitX=0.5;exitY=1;exitDx=0;exitDy=0;fontSize=12;" parent="1" edge="1">
          <mxGeometry relative="1" as="geometry">
            <mxPoint x="670" y="350" as="sourcePoint" />
            <mxPoint x="670" y="350" as="targetPoint" />
          </mxGeometry>
        </mxCell>
        <mxCell id="97Ysu-zJNFPGAkoGWPqu-11" value="Blob Storage Manifest" style="shape=note;whiteSpace=wrap;html=1;backgroundOutline=1;darkOpacity=0.05;fillColor=#e1d5e7;strokeColor=#9673a6;fontSize=12;" parent="1" vertex="1">
          <mxGeometry x="430" y="382.5" width="75" height="97.5" as="geometry" />
        </mxCell>
        <mxCell id="97Ysu-zJNFPGAkoGWPqu-12" value="Request Form&amp;nbsp;" style="shape=note;whiteSpace=wrap;html=1;backgroundOutline=1;darkOpacity=0.05;strokeColor=#d79b00;fillColor=#FFDEEA;fontSize=12;" parent="1" vertex="1">
          <mxGeometry x="430" y="187.5" width="75" height="97.5" as="geometry" />
        </mxCell>
        <mxCell id="97Ysu-zJNFPGAkoGWPqu-17" value="" style="rounded=1;whiteSpace=wrap;html=1;fontStyle=1;strokeColor=#6c8ebf;fillColor=#EBF8FF;fontSize=12;" parent="1" vertex="1">
          <mxGeometry x="1050" y="120" width="250" height="380" as="geometry" />
        </mxCell>
        <mxCell id="97Ysu-zJNFPGAkoGWPqu-19" value="" style="endArrow=classic;html=1;exitX=0;exitY=0.5;exitDx=0;exitDy=0;exitPerimeter=0;fontSize=12;" parent="1" edge="1" source="97Ysu-zJNFPGAkoGWPqu-1">
          <mxGeometry width="50" height="50" relative="1" as="geometry">
            <mxPoint x="720" y="358.25" as="sourcePoint" />
            <mxPoint x="590" y="355" as="targetPoint" />
          </mxGeometry>
        </mxCell>
        <mxCell id="97Ysu-zJNFPGAkoGWPqu-62" value="&lt;span style=&quot;font-size: 12px;&quot;&gt;&amp;nbsp;Checkout&lt;/span&gt;&lt;br style=&quot;font-size: 12px;&quot;&gt;&lt;span style=&quot;font-size: 12px;&quot;&gt;manifest&lt;/span&gt;" style="edgeLabel;html=1;align=center;verticalAlign=middle;resizable=0;points=[];fontColor=#000000;labelBackgroundColor=#FFFFFF;fontSize=12;" parent="97Ysu-zJNFPGAkoGWPqu-19" vertex="1" connectable="0">
          <mxGeometry x="0.2" y="1" relative="1" as="geometry">
            <mxPoint x="14" as="offset" />
          </mxGeometry>
        </mxCell>
        <mxCell id="97Ysu-zJNFPGAkoGWPqu-21" value="&lt;span style=&quot;font-size: 12px;&quot;&gt;&amp;nbsp;Checkout&lt;br style=&quot;font-size: 12px;&quot;&gt;manifest&lt;br style=&quot;font-size: 12px;&quot;&gt;&lt;/span&gt;" style="endArrow=classic;html=1;exitX=0.988;exitY=0.537;exitDx=0;exitDy=0;exitPerimeter=0;entryX=0.008;entryY=0.629;entryDx=0;entryDy=0;entryPerimeter=0;fontSize=12;" parent="1" edge="1" target="97Ysu-zJNFPGAkoGWPqu-17" source="97Ysu-zJNFPGAkoGWPqu-1">
          <mxGeometry width="50" height="50" relative="1" as="geometry">
            <mxPoint x="920" y="360" as="sourcePoint" />
            <mxPoint x="1030" y="360" as="targetPoint" />
          </mxGeometry>
        </mxCell>
        <mxCell id="97Ysu-zJNFPGAkoGWPqu-23" value="&lt;h4 style=&quot;font-size: 12px;&quot;&gt;CI Pipeline (ADO)&lt;/h4&gt;" style="text;html=1;strokeColor=none;fillColor=none;align=center;verticalAlign=middle;whiteSpace=wrap;rounded=0;fontSize=12;" parent="1" vertex="1">
          <mxGeometry x="1065" y="127.5" width="220" height="20" as="geometry" />
        </mxCell>
        <mxCell id="97Ysu-zJNFPGAkoGWPqu-24" value="Blob Storage Manifest" style="shape=note;whiteSpace=wrap;html=1;backgroundOutline=1;darkOpacity=0.05;fillColor=#e1d5e7;strokeColor=#9673a6;fontSize=12;" parent="1" vertex="1">
          <mxGeometry x="1137.5" y="177.5" width="75" height="97.5" as="geometry" />
        </mxCell>
        <mxCell id="97Ysu-zJNFPGAkoGWPqu-27" value="Template" style="shape=note;whiteSpace=wrap;html=1;backgroundOutline=1;darkOpacity=0.05;fillColor=#f5f5f5;strokeColor=#666666;fontColor=#333333;fontSize=12;" parent="1" vertex="1">
          <mxGeometry x="1137.5" y="380" width="80" height="100" as="geometry" />
        </mxCell>
        <mxCell id="97Ysu-zJNFPGAkoGWPqu-30" value="" style="endArrow=classic;html=1;exitX=0.5;exitY=1;exitDx=0;exitDy=0;entryX=0.5;entryY=0;entryDx=0;entryDy=0;entryPerimeter=0;fontSize=12;" parent="1" edge="1" target="97Ysu-zJNFPGAkoGWPqu-33" source="97Ysu-zJNFPGAkoGWPqu-17">
          <mxGeometry width="50" height="50" relative="1" as="geometry">
            <mxPoint x="1174.5" y="657.5" as="sourcePoint" />
            <mxPoint x="1174.5" y="747.5" as="targetPoint" />
          </mxGeometry>
        </mxCell>
        <mxCell id="97Ysu-zJNFPGAkoGWPqu-39" value="Templates &lt;br style=&quot;font-size: 12px;&quot;&gt;produce &lt;br style=&quot;font-size: 12px;&quot;&gt;terraform" style="edgeLabel;html=1;align=center;verticalAlign=middle;resizable=0;points=[];fontSize=12;" parent="97Ysu-zJNFPGAkoGWPqu-30" vertex="1" connectable="0">
          <mxGeometry x="-0.2444" relative="1" as="geometry">
            <mxPoint as="offset" />
          </mxGeometry>
        </mxCell>
        <mxCell id="97Ysu-zJNFPGAkoGWPqu-32" value="Terraform files" style="shape=note;whiteSpace=wrap;html=1;backgroundOutline=1;darkOpacity=0.05;fillColor=#dae8fc;strokeColor=#6c8ebf;fontSize=12;" parent="1" vertex="1">
          <mxGeometry x="1137.5" y="830" width="80" height="100" as="geometry" />
        </mxCell>
        <mxCell id="97Ysu-zJNFPGAkoGWPqu-34" value="&lt;h5 style=&quot;font-size: 12px;&quot;&gt;Terraform Repo&amp;nbsp;&lt;/h5&gt;" style="text;html=1;strokeColor=none;fillColor=none;align=center;verticalAlign=middle;whiteSpace=wrap;rounded=0;fontSize=12;" parent="1" vertex="1">
          <mxGeometry x="1097.5" y="800" width="160" height="20" as="geometry" />
        </mxCell>
        <mxCell id="97Ysu-zJNFPGAkoGWPqu-41" value="" style="endArrow=classic;html=1;entryX=0.5;entryY=0;entryDx=0;entryDy=0;entryPerimeter=0;fontSize=12;" parent="1" target="97Ysu-zJNFPGAkoGWPqu-11" edge="1">
          <mxGeometry width="50" height="50" relative="1" as="geometry">
            <mxPoint x="467" y="295" as="sourcePoint" />
            <mxPoint x="467" y="375" as="targetPoint" />
          </mxGeometry>
        </mxCell>
        <mxCell id="97Ysu-zJNFPGAkoGWPqu-58" value="&lt;span style=&quot;font-size: 12px;&quot;&gt;Read info/ resource details from user request&lt;br style=&quot;font-size: 12px;&quot;&gt;&amp;nbsp;form&amp;nbsp;&lt;/span&gt;&lt;span style=&quot;font-size: 12px;&quot;&gt;and update manifest&lt;/span&gt;" style="edgeLabel;html=1;align=center;verticalAlign=middle;resizable=0;points=[];fontColor=#000000;labelBackgroundColor=#EBF8FF;fontSize=12;" parent="97Ysu-zJNFPGAkoGWPqu-41" vertex="1" connectable="0">
          <mxGeometry x="-0.2" y="-2" relative="1" as="geometry">
            <mxPoint x="3" y="-17" as="offset" />
          </mxGeometry>
        </mxCell>
        <mxCell id="97Ysu-zJNFPGAkoGWPqu-44" value="" style="endArrow=classic;html=1;entryX=0.5;entryY=0;entryDx=0;entryDy=0;entryPerimeter=0;exitX=0.5;exitY=1;exitDx=0;exitDy=0;exitPerimeter=0;fontSize=12;" parent="1" edge="1" target="97Ysu-zJNFPGAkoGWPqu-27" source="97Ysu-zJNFPGAkoGWPqu-24">
          <mxGeometry width="50" height="50" relative="1" as="geometry">
            <mxPoint x="1174.5" y="280" as="sourcePoint" />
            <mxPoint x="1174.5" y="370" as="targetPoint" />
          </mxGeometry>
        </mxCell>
        <mxCell id="97Ysu-zJNFPGAkoGWPqu-57" value="&lt;span style=&quot;color: rgb(0, 0, 0); font-family: helvetica; font-size: 12px; font-style: normal; font-weight: 400; letter-spacing: normal; text-align: center; text-indent: 0px; text-transform: none; word-spacing: 0px; display: inline; float: none;&quot;&gt;Hydrates&lt;/span&gt;&lt;br style=&quot;color: rgb(0, 0, 0); font-family: helvetica; font-size: 12px; font-style: normal; font-weight: 400; letter-spacing: normal; text-align: center; text-indent: 0px; text-transform: none; word-spacing: 0px;&quot;&gt;&lt;font face=&quot;helvetica&quot; style=&quot;font-size: 12px;&quot;&gt;&lt;span style=&quot;font-size: 12px;&quot;&gt;templates&lt;/span&gt;&lt;/font&gt;" style="edgeLabel;html=1;align=center;verticalAlign=middle;resizable=0;points=[];fontColor=#000000;labelBackgroundColor=#EBF8FF;fontSize=12;" parent="97Ysu-zJNFPGAkoGWPqu-44" vertex="1" connectable="0">
          <mxGeometry x="-0.0444" y="-1" relative="1" as="geometry">
            <mxPoint as="offset" />
          </mxGeometry>
        </mxCell>
        <mxCell id="97Ysu-zJNFPGAkoGWPqu-59" value="" style="endArrow=classic;html=1;strokeWidth=1;exitX=1;exitY=0.75;exitDx=0;exitDy=0;entryX=-0.012;entryY=0.774;entryDx=0;entryDy=0;entryPerimeter=0;fontSize=12;" parent="1" edge="1" target="97Ysu-zJNFPGAkoGWPqu-1" source="97Ysu-zJNFPGAkoGWPqu-46">
          <mxGeometry width="50" height="50" relative="1" as="geometry">
            <mxPoint x="610" y="410" as="sourcePoint" />
            <mxPoint x="720" y="410" as="targetPoint" />
          </mxGeometry>
        </mxCell>
        <mxCell id="97Ysu-zJNFPGAkoGWPqu-61" value="Pushback &lt;br style=&quot;font-size: 12px;&quot;&gt;updated &lt;br style=&quot;font-size: 12px;&quot;&gt;manifest" style="edgeLabel;html=1;align=center;verticalAlign=middle;resizable=0;points=[];fontColor=#000000;fontSize=12;" parent="97Ysu-zJNFPGAkoGWPqu-59" vertex="1" connectable="0">
          <mxGeometry x="0.2364" relative="1" as="geometry">
            <mxPoint x="-11" as="offset" />
          </mxGeometry>
        </mxCell>
        <mxCell id="sDYXM3PJCPHO03Bxwu59-3" value="&lt;h4 style=&quot;font-size: 12px;&quot;&gt;Service Principal Automation&amp;nbsp;&lt;/h4&gt;" style="text;html=1;strokeColor=none;fillColor=none;align=center;verticalAlign=middle;whiteSpace=wrap;rounded=0;fontSize=12;" parent="1" vertex="1">
          <mxGeometry x="-20" y="147.5" width="200" height="20" as="geometry" />
        </mxCell>
        <mxCell id="1xDmvpwKd0i19dfhEDCs-3" style="rounded=0;orthogonalLoop=1;jettySize=auto;html=1;exitX=0;exitY=0;exitDx=72.5;exitDy=63.75;exitPerimeter=0;startArrow=classic;startFill=1;endArrow=none;endFill=0;fontSize=12;" parent="1" source="sDYXM3PJCPHO03Bxwu59-4" target="97Ysu-zJNFPGAkoGWPqu-11" edge="1">
          <mxGeometry relative="1" as="geometry" />
        </mxCell>
        <mxCell id="v7suImzw2IKG3KuPnK13-8" value="Automatically&amp;nbsp;&lt;br style=&quot;font-size: 12px;&quot;&gt;generate a&amp;nbsp;&lt;br style=&quot;font-size: 12px;&quot;&gt;PR" style="edgeStyle=none;rounded=0;orthogonalLoop=1;jettySize=auto;html=1;exitX=0.5;exitY=1;exitDx=0;exitDy=0;exitPerimeter=0;entryX=0.5;entryY=0;entryDx=0;entryDy=0;entryPerimeter=0;fontSize=12;" edge="1" parent="1" source="sDYXM3PJCPHO03Bxwu59-4" target="v7suImzw2IKG3KuPnK13-6">
          <mxGeometry relative="1" as="geometry" />
        </mxCell>
        <mxCell id="sDYXM3PJCPHO03Bxwu59-4" value="Service Principal Manifest" style="shape=note;whiteSpace=wrap;html=1;backgroundOutline=1;darkOpacity=0.05;fillColor=#FFFFCC;strokeColor=#9673a6;fontSize=12;" parent="1" vertex="1">
          <mxGeometry x="43.75" y="370" width="72.5" height="97.5" as="geometry" />
        </mxCell>
        <mxCell id="sDYXM3PJCPHO03Bxwu59-11" value="&lt;h4 style=&quot;font-size: 12px;&quot;&gt;&lt;br style=&quot;font-size: 12px;&quot;&gt;&lt;/h4&gt;" style="text;html=1;strokeColor=none;fillColor=none;align=center;verticalAlign=middle;whiteSpace=wrap;rounded=0;fontSize=12;" parent="1" vertex="1">
          <mxGeometry x="1355" y="692.5" width="220" height="20" as="geometry" />
        </mxCell>
        <mxCell id="sDYXM3PJCPHO03Bxwu59-12" value="&lt;span style=&quot;font-size: 12px;&quot;&gt;After apply&lt;br style=&quot;font-size: 12px;&quot;&gt;&amp;nbsp;run&lt;br style=&quot;font-size: 12px;&quot;&gt;&amp;nbsp;blobstores.dat &lt;br style=&quot;font-size: 12px;&quot;&gt;update&lt;br style=&quot;font-size: 12px;&quot;&gt;&lt;/span&gt;" style="endArrow=classic;html=1;exitX=1;exitY=0.5;exitDx=0;exitDy=0;exitPerimeter=0;entryX=0;entryY=0.5;entryDx=0;entryDy=0;entryPerimeter=0;fontSize=12;" parent="1" source="97Ysu-zJNFPGAkoGWPqu-33" edge="1" target="v7suImzw2IKG3KuPnK13-9">
          <mxGeometry x="-0.0347" y="-4" width="50" height="50" relative="1" as="geometry">
            <mxPoint x="1260" y="685" as="sourcePoint" />
            <mxPoint x="1407.8999999999996" y="862.0799999999999" as="targetPoint" />
            <mxPoint as="offset" />
          </mxGeometry>
        </mxCell>
        <mxCell id="1xDmvpwKd0i19dfhEDCs-6" value="" style="edgeStyle=none;rounded=0;orthogonalLoop=1;jettySize=auto;html=1;startArrow=none;startFill=0;endArrow=classic;endFill=1;fontSize=12;" parent="1" source="1xDmvpwKd0i19dfhEDCs-5" target="sDYXM3PJCPHO03Bxwu59-4" edge="1">
          <mxGeometry relative="1" as="geometry" />
        </mxCell>
        <mxCell id="1xDmvpwKd0i19dfhEDCs-5" value="Non Blob Request Form&amp;nbsp;" style="shape=note;whiteSpace=wrap;html=1;backgroundOutline=1;darkOpacity=0.05;strokeColor=#d79b00;fillColor=#FFDEEA;verticalAlign=middle;spacing=2;spacingBottom=-11;fontSize=12;" parent="1" vertex="1">
          <mxGeometry x="40" y="177.5" width="75" height="97.5" as="geometry" />
        </mxCell>
        <mxCell id="1xDmvpwKd0i19dfhEDCs-38" value="" style="endArrow=none;html=1;startArrow=classic;startFill=1;endFill=0;entryX=1;entryY=0.5;entryDx=0;entryDy=0;entryPerimeter=0;exitX=0;exitY=0.674;exitDx=0;exitDy=0;exitPerimeter=0;fontSize=12;" parent="1" edge="1" target="1xDmvpwKd0i19dfhEDCs-42" source="1xDmvpwKd0i19dfhEDCs-4">
          <mxGeometry width="50" height="50" relative="1" as="geometry">
            <mxPoint x="-70" y="354.5" as="sourcePoint" />
            <mxPoint x="-180" y="354.5" as="targetPoint" />
          </mxGeometry>
        </mxCell>
        <mxCell id="1xDmvpwKd0i19dfhEDCs-39" value="&lt;span style=&quot;font-size: 12px;&quot;&gt;&amp;nbsp;Checkout&lt;/span&gt;&lt;br style=&quot;font-size: 12px;&quot;&gt;&lt;span style=&quot;font-size: 12px;&quot;&gt;manifest&lt;/span&gt;" style="edgeLabel;html=1;align=center;verticalAlign=middle;resizable=0;points=[];fontColor=#000000;labelBackgroundColor=#FFFFFF;fontSize=12;" parent="1xDmvpwKd0i19dfhEDCs-38" vertex="1" connectable="0">
          <mxGeometry x="0.2" y="1" relative="1" as="geometry">
            <mxPoint x="14" as="offset" />
          </mxGeometry>
        </mxCell>
        <mxCell id="1xDmvpwKd0i19dfhEDCs-40" value="" style="endArrow=none;html=1;strokeWidth=1;startArrow=classic;startFill=1;endFill=0;exitX=0.981;exitY=0.768;exitDx=0;exitDy=0;exitPerimeter=0;entryX=0;entryY=0.808;entryDx=0;entryDy=0;entryPerimeter=0;fontSize=12;" parent="1" edge="1" target="1xDmvpwKd0i19dfhEDCs-4" source="1xDmvpwKd0i19dfhEDCs-42">
          <mxGeometry width="50" height="50" relative="1" as="geometry">
            <mxPoint x="-180" y="416.5" as="sourcePoint" />
            <mxPoint x="-40" y="420" as="targetPoint" />
          </mxGeometry>
        </mxCell>
        <mxCell id="1xDmvpwKd0i19dfhEDCs-41" value="Pushback &lt;br style=&quot;font-size: 12px;&quot;&gt;updated &lt;br style=&quot;font-size: 12px;&quot;&gt;manifest" style="edgeLabel;html=1;align=center;verticalAlign=middle;resizable=0;points=[];fontColor=#000000;fontSize=12;" parent="1xDmvpwKd0i19dfhEDCs-40" vertex="1" connectable="0">
          <mxGeometry x="0.2364" relative="1" as="geometry">
            <mxPoint x="-11" as="offset" />
          </mxGeometry>
        </mxCell>
        <mxCell id="1xDmvpwKd0i19dfhEDCs-42" value="" style="shape=cylinder3;whiteSpace=wrap;html=1;boundedLbl=1;backgroundOutline=1;size=15;fillColor=#d5e8d4;strokeColor=#82b366;fontSize=12;" parent="1" vertex="1">
          <mxGeometry x="-360" y="280" width="160" height="190" as="geometry" />
        </mxCell>
        <mxCell id="1xDmvpwKd0i19dfhEDCs-43" value="&lt;h5 style=&quot;font-size: 12px;&quot;&gt;Service Principal Git Repo&lt;/h5&gt;" style="text;html=1;strokeColor=none;fillColor=none;align=center;verticalAlign=middle;whiteSpace=wrap;rounded=0;fontSize=12;" parent="1" vertex="1">
          <mxGeometry x="-360" y="307.5" width="160" height="20" as="geometry" />
        </mxCell>
        <mxCell id="1xDmvpwKd0i19dfhEDCs-44" value="Service Principal Manifest" style="shape=note;whiteSpace=wrap;html=1;backgroundOutline=1;darkOpacity=0.05;fillColor=#fff2cc;strokeColor=#d6b656;fontSize=12;" parent="1" vertex="1">
          <mxGeometry x="-317.5" y="340" width="75" height="97.5" as="geometry" />
        </mxCell>
        <mxCell id="1xDmvpwKd0i19dfhEDCs-47" value="" style="endArrow=classic;html=1;startArrow=none;startFill=0;endFill=1;exitX=0;exitY=0;exitDx=0;exitDy=55;exitPerimeter=0;entryX=1.008;entryY=0.541;entryDx=0;entryDy=0;entryPerimeter=0;fontSize=12;" parent="1" edge="1" target="1xDmvpwKd0i19dfhEDCs-50" source="1xDmvpwKd0i19dfhEDCs-42">
          <mxGeometry width="50" height="50" relative="1" as="geometry">
            <mxPoint x="-370" y="354.5" as="sourcePoint" />
            <mxPoint x="-480" y="354.5" as="targetPoint" />
          </mxGeometry>
        </mxCell>
        <mxCell id="1xDmvpwKd0i19dfhEDCs-48" value="&lt;span style=&quot;font-size: 12px;&quot;&gt;&amp;nbsp;Checkout&lt;/span&gt;&lt;br style=&quot;font-size: 12px;&quot;&gt;&lt;span style=&quot;font-size: 12px;&quot;&gt;manifest&lt;/span&gt;" style="edgeLabel;html=1;align=center;verticalAlign=middle;resizable=0;points=[];fontColor=#000000;labelBackgroundColor=#FFFFFF;fontSize=12;" parent="1xDmvpwKd0i19dfhEDCs-47" vertex="1" connectable="0">
          <mxGeometry x="0.2" y="1" relative="1" as="geometry">
            <mxPoint x="11" as="offset" />
          </mxGeometry>
        </mxCell>
        <mxCell id="v7suImzw2IKG3KuPnK13-1" style="rounded=0;orthogonalLoop=1;jettySize=auto;html=1;exitX=1;exitY=0.5;exitDx=0;exitDy=0;exitPerimeter=0;entryX=0.5;entryY=1;entryDx=0;entryDy=0;entryPerimeter=0;edgeStyle=orthogonalEdgeStyle;fontSize=12;" edge="1" parent="1" source="1xDmvpwKd0i19dfhEDCs-49" target="97Ysu-zJNFPGAkoGWPqu-11">
          <mxGeometry relative="1" as="geometry">
            <Array as="points">
              <mxPoint x="468" y="865" />
            </Array>
          </mxGeometry>
        </mxCell>
        <mxCell id="1xDmvpwKd0i19dfhEDCs-49" value="" style="shape=cylinder3;whiteSpace=wrap;html=1;boundedLbl=1;backgroundOutline=1;size=15;fillColor=#d5e8d4;strokeColor=#82b366;fontSize=12;" parent="1" vertex="1">
          <mxGeometry x="-682.5" y="770" width="160" height="190" as="geometry" />
        </mxCell>
        <mxCell id="1xDmvpwKd0i19dfhEDCs-50" value="" style="rounded=1;whiteSpace=wrap;html=1;fontStyle=1;strokeColor=#6c8ebf;fillColor=#EBF8FF;fontSize=12;" parent="1" vertex="1">
          <mxGeometry x="-730" y="127.5" width="250" height="380" as="geometry" />
        </mxCell>
        <mxCell id="1xDmvpwKd0i19dfhEDCs-51" value="&lt;h4 style=&quot;font-size: 12px;&quot;&gt;SP Automation CI Pipeline (ADO)&lt;/h4&gt;" style="text;html=1;strokeColor=none;fillColor=none;align=center;verticalAlign=middle;whiteSpace=wrap;rounded=0;fontSize=12;" parent="1" vertex="1">
          <mxGeometry x="-715" y="155" width="220" height="20" as="geometry" />
        </mxCell>
        <mxCell id="1xDmvpwKd0i19dfhEDCs-53" value="Templates&amp;nbsp;" style="shape=note;whiteSpace=wrap;html=1;backgroundOutline=1;darkOpacity=0.05;fillColor=#f5f5f5;strokeColor=#666666;fontColor=#333333;fontSize=12;" parent="1" vertex="1">
          <mxGeometry x="-642.5" y="387.5" width="80" height="100" as="geometry" />
        </mxCell>
        <mxCell id="1xDmvpwKd0i19dfhEDCs-54" value="" style="endArrow=classic;html=1;entryX=0.5;entryY=0;entryDx=0;entryDy=0;entryPerimeter=0;exitX=0.5;exitY=1;exitDx=0;exitDy=0;fontSize=12;" parent="1" edge="1" target="1xDmvpwKd0i19dfhEDCs-49" source="1xDmvpwKd0i19dfhEDCs-50">
          <mxGeometry width="50" height="50" relative="1" as="geometry">
            <mxPoint x="-606.25" y="513.75" as="sourcePoint" />
            <mxPoint x="-603.75" y="776.25" as="targetPoint" />
          </mxGeometry>
        </mxCell>
        <mxCell id="1xDmvpwKd0i19dfhEDCs-55" value="Templates &lt;br style=&quot;font-size: 12px;&quot;&gt;produce &lt;br style=&quot;font-size: 12px;&quot;&gt;terraform files" style="edgeLabel;html=1;align=center;verticalAlign=middle;resizable=0;points=[];fontSize=12;" parent="1xDmvpwKd0i19dfhEDCs-54" vertex="1" connectable="0">
          <mxGeometry x="-0.2444" relative="1" as="geometry">
            <mxPoint as="offset" />
          </mxGeometry>
        </mxCell>
        <mxCell id="1xDmvpwKd0i19dfhEDCs-57" value="terraform files" style="shape=note;whiteSpace=wrap;html=1;backgroundOutline=1;darkOpacity=0.05;fillColor=#dae8fc;strokeColor=#6c8ebf;fontSize=12;" parent="1" vertex="1">
          <mxGeometry x="-642.5" y="830" width="80" height="100" as="geometry" />
        </mxCell>
        <mxCell id="1xDmvpwKd0i19dfhEDCs-58" value="&lt;h5 style=&quot;font-size: 12px;&quot;&gt;Terraform Repo&amp;nbsp;&lt;/h5&gt;" style="text;html=1;strokeColor=none;fillColor=none;align=center;verticalAlign=middle;whiteSpace=wrap;rounded=0;fontSize=12;" parent="1" vertex="1">
          <mxGeometry x="-685" y="800" width="160" height="20" as="geometry" />
        </mxCell>
        <mxCell id="1xDmvpwKd0i19dfhEDCs-59" value="" style="endArrow=classic;html=1;entryX=0.5;entryY=0;entryDx=0;entryDy=0;entryPerimeter=0;exitX=0.5;exitY=1;exitDx=0;exitDy=0;exitPerimeter=0;fontSize=12;" parent="1" edge="1" target="1xDmvpwKd0i19dfhEDCs-53">
          <mxGeometry width="50" height="50" relative="1" as="geometry">
            <mxPoint x="-605" y="282.5" as="sourcePoint" />
            <mxPoint x="-606.1199999999999" y="377.5" as="targetPoint" />
          </mxGeometry>
        </mxCell>
        <mxCell id="1xDmvpwKd0i19dfhEDCs-60" value="&lt;span style=&quot;color: rgb(0, 0, 0); font-family: helvetica; font-size: 12px; font-style: normal; font-weight: 400; letter-spacing: normal; text-align: center; text-indent: 0px; text-transform: none; word-spacing: 0px; display: inline; float: none;&quot;&gt;Hydrates&lt;/span&gt;&lt;br style=&quot;color: rgb(0, 0, 0); font-family: helvetica; font-size: 12px; font-style: normal; font-weight: 400; letter-spacing: normal; text-align: center; text-indent: 0px; text-transform: none; word-spacing: 0px;&quot;&gt;&lt;span style=&quot;color: rgb(0, 0, 0); font-family: helvetica; font-size: 12px; font-style: normal; font-weight: 400; letter-spacing: normal; text-align: center; text-indent: 0px; text-transform: none; word-spacing: 0px; display: inline; float: none;&quot;&gt;&amp;nbsp;templates&amp;nbsp;&lt;/span&gt;" style="edgeLabel;html=1;align=center;verticalAlign=middle;resizable=0;points=[];fontColor=#000000;labelBackgroundColor=#EBF8FF;fontSize=12;" parent="1xDmvpwKd0i19dfhEDCs-59" vertex="1" connectable="0">
          <mxGeometry x="-0.0444" y="-1" relative="1" as="geometry">
            <mxPoint as="offset" />
          </mxGeometry>
        </mxCell>
        <mxCell id="v7suImzw2IKG3KuPnK13-2" value="Outputs map&lt;br style=&quot;font-size: 12px;&quot;&gt;&amp;nbsp;of SPs to environments" style="edgeLabel;html=1;align=center;verticalAlign=middle;resizable=0;points=[];fontSize=12;" vertex="1" connectable="0" parent="1">
          <mxGeometry x="-9.999999999999886" y="850" as="geometry">
            <mxPoint x="12" y="12" as="offset" />
          </mxGeometry>
        </mxCell>
        <mxCell id="v7suImzw2IKG3KuPnK13-12" style="edgeStyle=none;rounded=0;orthogonalLoop=1;jettySize=auto;html=1;exitX=1;exitY=0.5;exitDx=0;exitDy=0;exitPerimeter=0;fontSize=12;" edge="1" parent="1" source="v7suImzw2IKG3KuPnK13-6" target="v7suImzw2IKG3KuPnK13-11">
          <mxGeometry relative="1" as="geometry" />
        </mxCell>
        <mxCell id="v7suImzw2IKG3KuPnK13-6" value="" style="shape=cylinder3;whiteSpace=wrap;html=1;boundedLbl=1;backgroundOutline=1;size=15;fillColor=#d5e8d4;strokeColor=#82b366;fontSize=12;" vertex="1" parent="1">
          <mxGeometry x="-2.5" y="600" width="160" height="190" as="geometry" />
        </mxCell>
        <mxCell id="v7suImzw2IKG3KuPnK13-7" value="&lt;h5 style=&quot;font-size: 12px;&quot;&gt;Vault Repo&lt;/h5&gt;" style="text;html=1;strokeColor=none;fillColor=none;align=center;verticalAlign=middle;whiteSpace=wrap;rounded=0;fontSize=12;" vertex="1" parent="1">
          <mxGeometry x="-2.5" y="642.5" width="160" height="20" as="geometry" />
        </mxCell>
        <mxCell id="v7suImzw2IKG3KuPnK13-9" value="" style="shape=cylinder3;whiteSpace=wrap;html=1;boundedLbl=1;backgroundOutline=1;size=15;fillColor=#d5e8d4;strokeColor=#82b366;fontSize=12;" vertex="1" parent="1">
          <mxGeometry x="1420" y="772.5" width="160" height="190" as="geometry" />
        </mxCell>
        <mxCell id="sDYXM3PJCPHO03Bxwu59-13" value="blobstores.dat" style="shape=note;whiteSpace=wrap;html=1;backgroundOutline=1;darkOpacity=0.05;fillColor=#ffe6cc;strokeColor=#d79b00;fontSize=12;" parent="1" vertex="1">
          <mxGeometry x="1460" y="840" width="80" height="100" as="geometry" />
        </mxCell>
        <mxCell id="sDYXM3PJCPHO03Bxwu59-18" value="&lt;h4 style=&quot;font-size: 12px;&quot;&gt;Libblob (ADO)&lt;/h4&gt;" style="text;html=1;strokeColor=none;fillColor=none;align=center;verticalAlign=middle;whiteSpace=wrap;rounded=0;fontSize=12;" parent="1" vertex="1">
          <mxGeometry x="1390" y="800" width="220" height="20" as="geometry" />
        </mxCell>
        <mxCell id="v7suImzw2IKG3KuPnK13-10" value="Unknown&lt;br style=&quot;font-size: 12px;&quot;&gt;Vault&lt;br style=&quot;font-size: 12px;&quot;&gt;Manifest" style="shape=note;whiteSpace=wrap;html=1;backgroundOutline=1;darkOpacity=0.05;strokeColor=#d79b00;fillColor=#FFDEEA;verticalAlign=middle;spacing=2;spacingBottom=-11;fontSize=12;" vertex="1" parent="1">
          <mxGeometry x="42.5" y="675" width="75" height="97.5" as="geometry" />
        </mxCell>
        <mxCell id="v7suImzw2IKG3KuPnK13-11" value="HashiCorp Vault" style="sketch=0;outlineConnect=0;fontColor=#232F3E;gradientColor=none;strokeColor=#232F3E;fillColor=#ffffff;dashed=0;verticalLabelPosition=bottom;verticalAlign=top;align=center;html=1;fontSize=12;fontStyle=0;aspect=fixed;shape=mxgraph.aws4.resourceIcon;resIcon=mxgraph.aws4.vault;" vertex="1" parent="1">
          <mxGeometry x="-210" y="642.5" width="105" height="105" as="geometry" />
        </mxCell>
        <mxCell id="v7suImzw2IKG3KuPnK13-13" value="Service Principal Manifest" style="shape=note;whiteSpace=wrap;html=1;backgroundOutline=1;darkOpacity=0.05;fillColor=#fff2cc;strokeColor=#d6b656;fontSize=12;" vertex="1" parent="1">
          <mxGeometry x="-642.5" y="192.5" width="75" height="97.5" as="geometry" />
        </mxCell>
      </root>
    </mxGraphModel>
  </diagram>
</mxfile>
